<?xml version="1.0" encoding="utf-8"?>
<!-- Generator: Adobe Illustrator 24.2.3, SVG Export Plug-In . SVG Version: 6.00 Build 0)  -->
<svg version="1.1" id="Ebene_1" xmlns="http://www.w3.org/2000/svg" xmlns:xlink="http://www.w3.org/1999/xlink" x="0px" y="0px"
	 viewBox="0 0 122.4 60.6" style="enable-background:new 0 0 122.4 60.6;" xml:space="preserve">
<style type="text/css">
	.st0{fill:#EF7D00;}
	.st1{fill:#1D1D1B;}
</style>
<title>DirkJasper</title>
<g>
	<g id="LogoDirk_Kopie">
		<polygon class="st0" points="4.4,22.9 0,22.9 0,0 22.9,0 22.9,4.4 4.4,4.4 		"/>
		<polygon class="st0" points="122.4,60.6 99.5,60.6 99.5,56.2 118,56.2 118,37.7 122.4,37.7 		"/>
	</g>
</g>
<g>
	<path class="st1" d="M30.4,7.2h3.7c3.4,0,5.6,2,5.6,5.8c0,5-2.6,6.8-5.5,6.8h-3.8V7.2z M31.4,18.9h2.9c2.8,0,4.5-1.9,4.5-5.6
		c0-4.1-2-5.4-4.8-5.4h-2.6V18.9z"/>
	<path class="st1" d="M42.3,7C42.7,7,43,7.3,43,7.8c0,0.5-0.4,0.8-0.8,0.8c-0.4,0-0.8-0.3-0.8-0.8C41.5,7.3,41.8,7,42.3,7z
		 M41.8,19.7v-9.3h0.9v9.3H41.8z"/>
	<path class="st1" d="M46,19.7h-0.9v-8.2L45,10.4h0.9l0.2,1.4c0.3-0.9,1.2-1.7,2.4-1.7c0.6,0,1.2,0.2,1.5,0.4l-0.3,0.8
		c-0.4-0.2-0.8-0.3-1.3-0.3c-1.3,0-2.2,1.3-2.2,2.7V19.7z"/>
	<path class="st1" d="M57.7,12.5c0,1.3-0.7,2.7-2.4,3.5l2.3,3.7h-1.1l-2.2-3.4c-0.7,0.2-1.4,0.2-2.3,0.2v3.2h-0.9V6.6h0.9V13
		c0.4-1.4,1.6-2.8,3.4-2.8C57.1,10.2,57.7,11.2,57.7,12.5z M55.4,11c-1.8,0-3.2,2.7-3.3,4.8c3.2,0.2,4.7-1.5,4.7-3.1
		C56.8,11.7,56.4,11,55.4,11z"/>
</g>
<g>
	<path class="st1" d="M10.4,41.1c1.2,0.9,2.7,1.5,4.5,1.5c2.1,0,3-1.3,3-3.7V19.1h5v17.5c0,1.3,0,2.9-0.2,4.3c-0.4,3.7-3,6-7.5,6
		c-3.4,0-5.7-1.1-7-2.1L10.4,41.1z"/>
	<path class="st1" d="M43.8,42.4l0.4,3.9h-4.2l-0.3-2.2l-0.2,0c-1.3,1.8-3.4,2.7-5.6,2.7c-5.8,0-8-4.1-8-10
		c0-7.2,3.6-11.8,10.7-11.8c1.4,0,4.3,0.3,7.3,1.4V42.4z M38.9,29.2c-0.6-0.3-1.8-0.5-3.1-0.5c-3.9,0-5.2,3.6-5.2,8.1
		c0,3.4,0.8,6.6,4.3,6.6c2.5,0,4-1.8,4-3.6V29.2z"/>
	<path class="st1" d="M47.1,41.4c1.4,0.9,3.8,2,5.9,2c1.7,0,3.1-0.8,3.1-2.6s-1.6-2.4-3.5-3c-3-0.9-6.4-1.8-6.4-6.1
		c0-4.3,3.5-6.5,7.5-6.5c3.1,0,5.7,1.2,7.4,2.9l-2.3,2.9c-1.6-1.4-3.3-2.2-5-2.2c-1.5,0-2.9,0.7-2.9,2.4c0,1.9,1.7,2.4,3.6,3
		c3,0.9,6.3,2.1,6.3,6.4c0,4.3-3.2,6.6-7.7,6.6c-3.5,0-6.4-1.3-7.5-2.1L47.1,41.4z"/>
	<path class="st1" d="M68,55h-4.9V26.5c3.1-0.9,6.1-1.4,8.2-1.4c6.6,0,9.6,3.6,9.6,10.7c0,7.2-3.3,11.1-8.7,11.1
		c-1.6,0-3.2-0.5-4.3-1.2V55z M70.4,29c-0.7,0-1.6,0.1-2.4,0.3v12.6c1.1,0.7,2.4,1,3.5,1c3.5,0,4.5-3.4,4.5-6.7
		C76,31.4,74.2,29,70.4,29z"/>
	<path class="st1" d="M99,30.8c0,6.3-7.8,7.1-11.6,7.2c0.2,2.7,1.7,5.2,5.2,5.2c2.4,0,4.2-1.1,5.2-1.8l1.5,3.2
		c-0.7,0.6-3.4,2.3-7.2,2.3c-6.8,0-9.5-4.3-9.5-10.5c0-6,3.5-11.3,10-11.3C96.5,25.1,99,27.2,99,30.8z M92.2,28.6
		c-3.3,0-4.8,3.2-5,6.2c2.2,0,7.4-0.7,7.4-3.8C94.7,29.5,93.7,28.6,92.2,28.6z"/>
	<path class="st1" d="M106.1,46.4h-4.9V29.1l-0.4-3.3h4l0.5,3c0.9-2.3,2.9-3.6,5-3.6c1.2,0,2.4,0.3,3.3,0.8l-0.9,4.1
		c-0.9-0.5-1.8-0.8-2.9-0.8c-2.2,0-3.6,1.8-3.7,4.1V46.4z"/>
</g>
</svg>
